<mxfile host="app.diagrams.net" modified="2024-03-22T13:43:51.111Z" agent="Mozilla/5.0 (X11; Linux x86_64; rv:109.0) Gecko/20100101 Firefox/115.0" etag="ob-Bw5UtuaXTFHnGVvOi" version="24.0.8" type="device">
  <diagram name="Page-1" id="g_oy65ygMpFBTy1RUbSw">
    <mxGraphModel dx="2248" dy="1540" grid="1" gridSize="10" guides="1" tooltips="1" connect="1" arrows="1" fold="1" page="1" pageScale="1" pageWidth="2336" pageHeight="1654" math="0" shadow="0">
      <root>
        <mxCell id="0" />
        <mxCell id="1" parent="0" />
        <mxCell id="5VBEP0D_r0S6fKka9dr4-5" style="edgeStyle=orthogonalEdgeStyle;rounded=0;orthogonalLoop=1;jettySize=auto;html=1;exitX=0.75;exitY=1;exitDx=0;exitDy=0;entryX=0.75;entryY=0;entryDx=0;entryDy=0;" parent="1" source="5VBEP0D_r0S6fKka9dr4-1" target="5VBEP0D_r0S6fKka9dr4-2" edge="1">
          <mxGeometry relative="1" as="geometry" />
        </mxCell>
        <mxCell id="5VBEP0D_r0S6fKka9dr4-7" value="8b data" style="edgeLabel;html=1;align=center;verticalAlign=middle;resizable=0;points=[];" parent="5VBEP0D_r0S6fKka9dr4-5" vertex="1" connectable="0">
          <mxGeometry x="-0.075" y="-2" relative="1" as="geometry">
            <mxPoint y="-1" as="offset" />
          </mxGeometry>
        </mxCell>
        <mxCell id="5VBEP0D_r0S6fKka9dr4-1" value="&lt;div&gt;DCD&lt;/div&gt;&lt;div&gt;180nm&lt;/div&gt;&lt;div&gt;8-bit&lt;br&gt;&lt;/div&gt;&lt;div&gt;10 Msps&lt;br&gt;&lt;/div&gt;" style="rounded=0;whiteSpace=wrap;html=1;fillColor=#f5f5f5;fontColor=#333333;strokeColor=#666666;" parent="1" vertex="1">
          <mxGeometry x="40" y="120" width="160" height="120" as="geometry" />
        </mxCell>
        <mxCell id="5VBEP0D_r0S6fKka9dr4-6" style="edgeStyle=orthogonalEdgeStyle;rounded=0;orthogonalLoop=1;jettySize=auto;html=1;exitX=0.25;exitY=0;exitDx=0;exitDy=0;entryX=0.25;entryY=1;entryDx=0;entryDy=0;" parent="1" source="5VBEP0D_r0S6fKka9dr4-2" target="5VBEP0D_r0S6fKka9dr4-1" edge="1">
          <mxGeometry relative="1" as="geometry" />
        </mxCell>
        <mxCell id="5VBEP0D_r0S6fKka9dr4-9" value="2b DAC" style="edgeLabel;html=1;align=center;verticalAlign=middle;resizable=0;points=[];" parent="5VBEP0D_r0S6fKka9dr4-6" vertex="1" connectable="0">
          <mxGeometry x="0.1107" y="-4" relative="1" as="geometry">
            <mxPoint as="offset" />
          </mxGeometry>
        </mxCell>
        <mxCell id="5VBEP0D_r0S6fKka9dr4-16" style="edgeStyle=orthogonalEdgeStyle;rounded=0;orthogonalLoop=1;jettySize=auto;html=1;exitX=0.5;exitY=1;exitDx=0;exitDy=0;" parent="1" source="5VBEP0D_r0S6fKka9dr4-2" edge="1">
          <mxGeometry relative="1" as="geometry">
            <mxPoint x="119.85714285714289" y="480" as="targetPoint" />
          </mxGeometry>
        </mxCell>
        <mxCell id="5VBEP0D_r0S6fKka9dr4-17" value="1.6Gbps" style="edgeLabel;html=1;align=center;verticalAlign=middle;resizable=0;points=[];" parent="5VBEP0D_r0S6fKka9dr4-16" vertex="1" connectable="0">
          <mxGeometry x="-0.2931" y="-2" relative="1" as="geometry">
            <mxPoint as="offset" />
          </mxGeometry>
        </mxCell>
        <mxCell id="5VBEP0D_r0S6fKka9dr4-2" value="&lt;div&gt;DMC&lt;/div&gt;&lt;div&gt;65 nm&lt;/div&gt;&lt;div&gt;50 frames&lt;/div&gt;" style="rounded=0;whiteSpace=wrap;html=1;fillColor=#e1d5e7;strokeColor=#9673a6;" parent="1" vertex="1">
          <mxGeometry x="40" y="320" width="160" height="120" as="geometry" />
        </mxCell>
        <mxCell id="5VBEP0D_r0S6fKka9dr4-10" style="edgeStyle=orthogonalEdgeStyle;rounded=0;orthogonalLoop=1;jettySize=auto;html=1;exitX=0.75;exitY=1;exitDx=0;exitDy=0;entryX=0.75;entryY=0;entryDx=0;entryDy=0;" parent="1" source="5VBEP0D_r0S6fKka9dr4-12" target="5VBEP0D_r0S6fKka9dr4-15" edge="1">
          <mxGeometry relative="1" as="geometry" />
        </mxCell>
        <mxCell id="5VBEP0D_r0S6fKka9dr4-11" value="8b&amp;nbsp; data" style="edgeLabel;html=1;align=center;verticalAlign=middle;resizable=0;points=[];" parent="5VBEP0D_r0S6fKka9dr4-10" vertex="1" connectable="0">
          <mxGeometry x="-0.075" y="-2" relative="1" as="geometry">
            <mxPoint y="-1" as="offset" />
          </mxGeometry>
        </mxCell>
        <mxCell id="5VBEP0D_r0S6fKka9dr4-12" value="&lt;div&gt;DCD&lt;/div&gt;&lt;div&gt;180nm&lt;/div&gt;&lt;div&gt;8-bit&lt;br&gt;&lt;/div&gt;&lt;div&gt;10 Msps&lt;br&gt;&lt;/div&gt;" style="rounded=0;whiteSpace=wrap;html=1;fillColor=#f5f5f5;fontColor=#333333;strokeColor=#666666;" parent="1" vertex="1">
          <mxGeometry x="240" y="120" width="160" height="120" as="geometry" />
        </mxCell>
        <mxCell id="5VBEP0D_r0S6fKka9dr4-13" style="edgeStyle=orthogonalEdgeStyle;rounded=0;orthogonalLoop=1;jettySize=auto;html=1;exitX=0.25;exitY=0;exitDx=0;exitDy=0;entryX=0.25;entryY=1;entryDx=0;entryDy=0;" parent="1" source="5VBEP0D_r0S6fKka9dr4-15" target="5VBEP0D_r0S6fKka9dr4-12" edge="1">
          <mxGeometry relative="1" as="geometry" />
        </mxCell>
        <mxCell id="5VBEP0D_r0S6fKka9dr4-14" value="2b DAC" style="edgeLabel;html=1;align=center;verticalAlign=middle;resizable=0;points=[];" parent="5VBEP0D_r0S6fKka9dr4-13" vertex="1" connectable="0">
          <mxGeometry x="0.1107" y="-4" relative="1" as="geometry">
            <mxPoint as="offset" />
          </mxGeometry>
        </mxCell>
        <mxCell id="5VBEP0D_r0S6fKka9dr4-15" value="&lt;div&gt;DMC&lt;/div&gt;&lt;div&gt;65 nm&lt;/div&gt;&lt;div&gt;50 frames&lt;/div&gt;" style="rounded=0;whiteSpace=wrap;html=1;fillColor=#e1d5e7;strokeColor=#9673a6;" parent="1" vertex="1">
          <mxGeometry x="240" y="320" width="160" height="120" as="geometry" />
        </mxCell>
        <mxCell id="5VBEP0D_r0S6fKka9dr4-18" style="edgeStyle=orthogonalEdgeStyle;rounded=0;orthogonalLoop=1;jettySize=auto;html=1;exitX=0.5;exitY=1;exitDx=0;exitDy=0;" parent="1" edge="1">
          <mxGeometry relative="1" as="geometry">
            <mxPoint x="319.6871428571429" y="480" as="targetPoint" />
            <mxPoint x="319.83" y="440" as="sourcePoint" />
          </mxGeometry>
        </mxCell>
        <mxCell id="5VBEP0D_r0S6fKka9dr4-19" value="&lt;font&gt;3.2 Gbps&lt;/font&gt;" style="edgeLabel;html=1;align=center;verticalAlign=middle;resizable=0;points=[];fontColor=#009900;" parent="5VBEP0D_r0S6fKka9dr4-18" vertex="1" connectable="0">
          <mxGeometry x="-0.2931" y="-2" relative="1" as="geometry">
            <mxPoint as="offset" />
          </mxGeometry>
        </mxCell>
        <mxCell id="5VBEP0D_r0S6fKka9dr4-21" value="&lt;div align=&quot;left&quot;&gt;&lt;b&gt;Potential Improvements?&lt;/b&gt;&lt;/div&gt;&lt;div align=&quot;left&quot;&gt;&lt;b&gt;&lt;br&gt;&lt;/b&gt;&lt;/div&gt;&lt;div align=&quot;left&quot;&gt;increase frames per burst&lt;br&gt;increase measurement resolution&lt;br&gt;increase bursts per second&lt;br&gt;&lt;/div&gt;" style="text;html=1;align=left;verticalAlign=top;resizable=0;points=[];autosize=1;strokeColor=none;fillColor=none;horizontal=1;labelPosition=center;verticalLabelPosition=middle;" parent="1" vertex="1">
          <mxGeometry x="40" y="500" width="200" height="90" as="geometry" />
        </mxCell>
        <mxCell id="5VBEP0D_r0S6fKka9dr4-25" value="Current Architecture:" style="text;html=1;align=center;verticalAlign=middle;resizable=0;points=[];autosize=1;strokeColor=none;fillColor=none;fontStyle=5;fontSize=14;" parent="1" vertex="1">
          <mxGeometry x="40" y="80" width="150" height="30" as="geometry" />
        </mxCell>
        <mxCell id="5VBEP0D_r0S6fKka9dr4-26" value="Config A:" style="text;html=1;align=center;verticalAlign=middle;resizable=0;points=[];autosize=1;strokeColor=none;fillColor=none;fontStyle=5;fontSize=14;" parent="1" vertex="1">
          <mxGeometry x="280" y="80" width="80" height="30" as="geometry" />
        </mxCell>
        <mxCell id="5VBEP0D_r0S6fKka9dr4-27" value="&lt;div align=&quot;left&quot;&gt;&lt;b&gt;Changes:&lt;/b&gt;&lt;br&gt;&lt;/div&gt;&lt;div align=&quot;left&quot;&gt;&lt;br&gt;&lt;/div&gt;&lt;div align=&quot;left&quot;&gt;no DCD change&lt;br&gt;&lt;/div&gt;&lt;div align=&quot;left&quot;&gt;&lt;font color=&quot;#009900&quot;&gt;&lt;br&gt;&lt;/font&gt;&lt;/div&gt;&lt;div align=&quot;left&quot;&gt;no increase in frame memory&lt;/div&gt;&lt;div align=&quot;left&quot;&gt;&lt;font color=&quot;#009900&quot;&gt;&lt;br&gt;&lt;/font&gt;&lt;/div&gt;&lt;div align=&quot;left&quot;&gt;improve PLL speed&lt;/div&gt;&lt;div align=&quot;left&quot;&gt;&lt;font color=&quot;#009900&quot;&gt;2x bursts per second&lt;/font&gt;&lt;/div&gt;&lt;div align=&quot;left&quot;&gt;&lt;font color=&quot;#009900&quot;&gt;(2x less dead time)&lt;/font&gt;&lt;/div&gt;&lt;div align=&quot;left&quot;&gt;&lt;font color=&quot;#009900&quot;&gt;&lt;br&gt;&lt;/font&gt;&lt;/div&gt;&lt;div align=&quot;left&quot;&gt;&lt;br&gt;&lt;/div&gt;" style="text;html=1;align=left;verticalAlign=top;resizable=0;points=[];autosize=1;strokeColor=none;fillColor=none;horizontal=1;labelPosition=center;verticalLabelPosition=middle;" parent="1" vertex="1">
          <mxGeometry x="240" y="500" width="180" height="170" as="geometry" />
        </mxCell>
        <mxCell id="5VBEP0D_r0S6fKka9dr4-28" value="&amp;nbsp;" style="text;whiteSpace=wrap;html=1;" parent="1" vertex="1">
          <mxGeometry x="360" y="270" width="40" height="40" as="geometry" />
        </mxCell>
        <mxCell id="5VBEP0D_r0S6fKka9dr4-29" style="edgeStyle=orthogonalEdgeStyle;rounded=0;orthogonalLoop=1;jettySize=auto;html=1;exitX=0.75;exitY=1;exitDx=0;exitDy=0;entryX=0.75;entryY=0;entryDx=0;entryDy=0;" parent="1" edge="1">
          <mxGeometry relative="1" as="geometry">
            <mxPoint x="519.58" y="240" as="sourcePoint" />
            <mxPoint x="519.58" y="320" as="targetPoint" />
          </mxGeometry>
        </mxCell>
        <mxCell id="5VBEP0D_r0S6fKka9dr4-30" value="&lt;font&gt;10b data&lt;/font&gt;" style="edgeLabel;html=1;align=center;verticalAlign=middle;resizable=0;points=[];fontColor=#009900;" parent="5VBEP0D_r0S6fKka9dr4-29" vertex="1" connectable="0">
          <mxGeometry x="-0.075" y="-2" relative="1" as="geometry">
            <mxPoint y="-1" as="offset" />
          </mxGeometry>
        </mxCell>
        <mxCell id="5VBEP0D_r0S6fKka9dr4-31" value="&lt;div&gt;DCD&lt;/div&gt;&lt;div&gt;&lt;font color=&quot;#009900&quot;&gt;65nm&lt;/font&gt;&lt;br&gt;&lt;/div&gt;&lt;div&gt;&lt;font color=&quot;#009900&quot;&gt;~12-bit&lt;br&gt;&lt;/font&gt;&lt;/div&gt;&lt;div&gt;10 Msps&lt;br&gt;&lt;/div&gt;" style="rounded=0;whiteSpace=wrap;html=1;fillColor=#e1d5e7;strokeColor=#9673a6;" parent="1" vertex="1">
          <mxGeometry x="440" y="120" width="160" height="120" as="geometry" />
        </mxCell>
        <mxCell id="5VBEP0D_r0S6fKka9dr4-34" style="edgeStyle=orthogonalEdgeStyle;rounded=0;orthogonalLoop=1;jettySize=auto;html=1;exitX=0.5;exitY=1;exitDx=0;exitDy=0;" parent="1" source="5VBEP0D_r0S6fKka9dr4-36" edge="1">
          <mxGeometry relative="1" as="geometry">
            <mxPoint x="519.8571428571429" y="480" as="targetPoint" />
          </mxGeometry>
        </mxCell>
        <mxCell id="5VBEP0D_r0S6fKka9dr4-35" value="1.6Gbps" style="edgeLabel;html=1;align=center;verticalAlign=middle;resizable=0;points=[];" parent="5VBEP0D_r0S6fKka9dr4-34" vertex="1" connectable="0">
          <mxGeometry x="-0.2931" y="-2" relative="1" as="geometry">
            <mxPoint as="offset" />
          </mxGeometry>
        </mxCell>
        <mxCell id="5VBEP0D_r0S6fKka9dr4-36" value="&lt;div&gt;DMC&lt;/div&gt;&lt;div&gt;65 nm&lt;/div&gt;&lt;div&gt;50 frames&lt;/div&gt;" style="rounded=0;whiteSpace=wrap;html=1;fillColor=#e1d5e7;strokeColor=#9673a6;" parent="1" vertex="1">
          <mxGeometry x="440" y="320" width="160" height="120" as="geometry" />
        </mxCell>
        <mxCell id="5VBEP0D_r0S6fKka9dr4-37" style="edgeStyle=orthogonalEdgeStyle;rounded=0;orthogonalLoop=1;jettySize=auto;html=1;exitX=0.75;exitY=1;exitDx=0;exitDy=0;entryX=0.75;entryY=0;entryDx=0;entryDy=0;" parent="1" source="5VBEP0D_r0S6fKka9dr4-39" target="5VBEP0D_r0S6fKka9dr4-42" edge="1">
          <mxGeometry relative="1" as="geometry" />
        </mxCell>
        <mxCell id="5VBEP0D_r0S6fKka9dr4-38" value="8b ADC" style="edgeLabel;html=1;align=center;verticalAlign=middle;resizable=0;points=[];" parent="5VBEP0D_r0S6fKka9dr4-37" vertex="1" connectable="0">
          <mxGeometry x="-0.075" y="-2" relative="1" as="geometry">
            <mxPoint y="-1" as="offset" />
          </mxGeometry>
        </mxCell>
        <mxCell id="5VBEP0D_r0S6fKka9dr4-39" value="&lt;div&gt;DCD&lt;/div&gt;&lt;div&gt;180nm&lt;/div&gt;&lt;div&gt;8-bit&lt;br&gt;&lt;/div&gt;&lt;div&gt;10 Msps&lt;br&gt;&lt;/div&gt;" style="rounded=0;whiteSpace=wrap;html=1;fillColor=#f5f5f5;fontColor=#333333;strokeColor=#666666;" parent="1" vertex="1">
          <mxGeometry x="640" y="120" width="160" height="120" as="geometry" />
        </mxCell>
        <mxCell id="5VBEP0D_r0S6fKka9dr4-40" style="edgeStyle=orthogonalEdgeStyle;rounded=0;orthogonalLoop=1;jettySize=auto;html=1;exitX=0.25;exitY=0;exitDx=0;exitDy=0;entryX=0.25;entryY=1;entryDx=0;entryDy=0;" parent="1" source="5VBEP0D_r0S6fKka9dr4-42" target="5VBEP0D_r0S6fKka9dr4-39" edge="1">
          <mxGeometry relative="1" as="geometry" />
        </mxCell>
        <mxCell id="5VBEP0D_r0S6fKka9dr4-41" value="2b DAC" style="edgeLabel;html=1;align=center;verticalAlign=middle;resizable=0;points=[];" parent="5VBEP0D_r0S6fKka9dr4-40" vertex="1" connectable="0">
          <mxGeometry x="0.1107" y="-4" relative="1" as="geometry">
            <mxPoint as="offset" />
          </mxGeometry>
        </mxCell>
        <mxCell id="5VBEP0D_r0S6fKka9dr4-42" value="&lt;div&gt;DMC&lt;/div&gt;&lt;div&gt;&lt;font color=&quot;#009900&quot;&gt;28 nm&lt;/font&gt;&lt;/div&gt;&lt;div&gt;&lt;font color=&quot;#009900&quot;&gt;~200 frames&lt;/font&gt;&lt;/div&gt;" style="rounded=0;whiteSpace=wrap;html=1;fillColor=#ffe6cc;strokeColor=#d79b00;" parent="1" vertex="1">
          <mxGeometry x="640" y="320" width="160" height="120" as="geometry" />
        </mxCell>
        <mxCell id="5VBEP0D_r0S6fKka9dr4-43" style="edgeStyle=orthogonalEdgeStyle;rounded=0;orthogonalLoop=1;jettySize=auto;html=1;exitX=0.5;exitY=1;exitDx=0;exitDy=0;" parent="1" edge="1">
          <mxGeometry relative="1" as="geometry">
            <mxPoint x="719.6871428571428" y="480" as="targetPoint" />
            <mxPoint x="719.8299999999999" y="440" as="sourcePoint" />
          </mxGeometry>
        </mxCell>
        <mxCell id="5VBEP0D_r0S6fKka9dr4-44" value="&lt;font&gt;3.2 Gbps&lt;/font&gt;" style="edgeLabel;html=1;align=center;verticalAlign=middle;resizable=0;points=[];fontColor=#009900;" parent="5VBEP0D_r0S6fKka9dr4-43" vertex="1" connectable="0">
          <mxGeometry x="-0.2931" y="-2" relative="1" as="geometry">
            <mxPoint as="offset" />
          </mxGeometry>
        </mxCell>
        <mxCell id="5VBEP0D_r0S6fKka9dr4-46" value="Config B:" style="text;html=1;align=center;verticalAlign=middle;resizable=0;points=[];autosize=1;strokeColor=none;fillColor=none;fontStyle=5;fontSize=14;" parent="1" vertex="1">
          <mxGeometry x="475" y="80" width="80" height="30" as="geometry" />
        </mxCell>
        <mxCell id="5VBEP0D_r0S6fKka9dr4-47" value="Config C:" style="text;html=1;align=center;verticalAlign=middle;resizable=0;points=[];autosize=1;strokeColor=none;fillColor=none;fontStyle=5;fontSize=14;" parent="1" vertex="1">
          <mxGeometry x="680" y="80" width="80" height="30" as="geometry" />
        </mxCell>
        <mxCell id="5VBEP0D_r0S6fKka9dr4-49" value="&amp;nbsp;" style="text;whiteSpace=wrap;html=1;" parent="1" vertex="1">
          <mxGeometry x="760" y="270" width="40" height="40" as="geometry" />
        </mxCell>
        <mxCell id="5VBEP0D_r0S6fKka9dr4-50" value="&lt;div align=&quot;left&quot;&gt;&lt;b&gt;Changes:&lt;/b&gt;&lt;/div&gt;&lt;div align=&quot;left&quot;&gt;&lt;b&gt;&lt;br&gt;&lt;/b&gt;&lt;/div&gt;&lt;div align=&quot;left&quot;&gt;port DCD to 65nm&lt;/div&gt;&lt;div align=&quot;left&quot;&gt;&lt;br&gt;&lt;/div&gt;&lt;div align=&quot;left&quot;&gt;redesign ADC as ~12-bit&lt;/div&gt;&lt;div align=&quot;left&quot;&gt;built-in pedestal DAC,&lt;/div&gt;&lt;div align=&quot;left&quot;&gt;frees full 10-wide bus&lt;br&gt;&lt;/div&gt;&lt;div&gt;&lt;font color=&quot;#009900&quot;&gt;10-bit ENOB measurments&lt;/font&gt;&lt;/div&gt;&lt;div&gt;&lt;font color=&quot;#009900&quot;&gt;resolutions&lt;/font&gt;&lt;/div&gt;&lt;div align=&quot;left&quot;&gt;&lt;br&gt;&lt;/div&gt;&lt;div align=&quot;left&quot;&gt;&lt;font color=&quot;#ff0000&quot;&gt;potentially higher DCD power&lt;/font&gt;&lt;br&gt;&lt;/div&gt;&lt;div align=&quot;left&quot;&gt;&lt;br&gt;&lt;/div&gt;&lt;div align=&quot;left&quot;&gt;no change in DMC&lt;br&gt;&lt;/div&gt;" style="text;html=1;align=left;verticalAlign=top;resizable=0;points=[];autosize=1;strokeColor=none;fillColor=none;horizontal=1;labelPosition=center;verticalLabelPosition=middle;" parent="1" vertex="1">
          <mxGeometry x="440" y="500" width="180" height="200" as="geometry" />
        </mxCell>
        <mxCell id="5VBEP0D_r0S6fKka9dr4-54" value="&lt;div align=&quot;left&quot;&gt;&lt;b&gt;Changes:&lt;/b&gt;&lt;br&gt;&lt;/div&gt;&lt;div align=&quot;left&quot;&gt;&lt;br&gt;&lt;/div&gt;&lt;div align=&quot;left&quot;&gt;no DCD change&lt;br&gt;&lt;/div&gt;&lt;div align=&quot;left&quot;&gt;&lt;font color=&quot;#009900&quot;&gt;&lt;br&gt;&lt;/font&gt;&lt;/div&gt;&lt;div align=&quot;left&quot;&gt;port DMC to 28nm&lt;/div&gt;&lt;div align=&quot;left&quot;&gt;&lt;br&gt;&lt;/div&gt;&lt;div align=&quot;left&quot;&gt;increase frame memory&lt;br&gt;&lt;/div&gt;&lt;div align=&quot;left&quot;&gt;&lt;font color=&quot;#009900&quot;&gt;4x frames per burst (200)&lt;br&gt;&lt;/font&gt;&lt;/div&gt;&lt;div align=&quot;left&quot;&gt;&lt;font color=&quot;#009900&quot;&gt;&lt;br&gt;&lt;/font&gt;&lt;/div&gt;&lt;div align=&quot;left&quot;&gt;2x improved PLL speed, but&lt;br&gt;&lt;/div&gt;&lt;div&gt;&lt;font color=&quot;#ff0000&quot;&gt;bursts/second will likely 0.5x&lt;/font&gt;&lt;br&gt;&lt;/div&gt;&lt;div&gt;&lt;font color=&quot;#ff3333&quot;&gt;(2x longer dead time)&lt;/font&gt;&lt;br&gt;&lt;/div&gt;" style="text;html=1;align=left;verticalAlign=top;resizable=0;points=[];autosize=1;strokeColor=none;fillColor=none;horizontal=1;labelPosition=center;verticalLabelPosition=middle;" parent="1" vertex="1">
          <mxGeometry x="640" y="500" width="170" height="190" as="geometry" />
        </mxCell>
        <mxCell id="5VBEP0D_r0S6fKka9dr4-60" value="&lt;div&gt;DMC&lt;/div&gt;&lt;div&gt;&lt;font color=&quot;#009900&quot;&gt;28 nm&lt;/font&gt;&lt;/div&gt;&lt;div&gt;&lt;font color=&quot;#009900&quot;&gt;~200 frames&lt;/font&gt;&lt;/div&gt;" style="rounded=0;whiteSpace=wrap;html=1;fillColor=#ffe6cc;strokeColor=#d79b00;" parent="1" vertex="1">
          <mxGeometry x="840" y="320" width="160" height="120" as="geometry" />
        </mxCell>
        <mxCell id="5VBEP0D_r0S6fKka9dr4-61" style="edgeStyle=orthogonalEdgeStyle;rounded=0;orthogonalLoop=1;jettySize=auto;html=1;exitX=0.5;exitY=1;exitDx=0;exitDy=0;" parent="1" edge="1">
          <mxGeometry relative="1" as="geometry">
            <mxPoint x="919.6871428571428" y="480" as="targetPoint" />
            <mxPoint x="919.8299999999999" y="440" as="sourcePoint" />
          </mxGeometry>
        </mxCell>
        <mxCell id="5VBEP0D_r0S6fKka9dr4-62" value="&lt;font&gt;3.2 Gbps&lt;/font&gt;" style="edgeLabel;html=1;align=center;verticalAlign=middle;resizable=0;points=[];fontColor=#009900;" parent="5VBEP0D_r0S6fKka9dr4-61" vertex="1" connectable="0">
          <mxGeometry x="-0.2931" y="-2" relative="1" as="geometry">
            <mxPoint as="offset" />
          </mxGeometry>
        </mxCell>
        <mxCell id="5VBEP0D_r0S6fKka9dr4-63" value="Config D:" style="text;html=1;align=center;verticalAlign=middle;resizable=0;points=[];autosize=1;strokeColor=none;fillColor=none;fontStyle=5;fontSize=14;" parent="1" vertex="1">
          <mxGeometry x="880" y="80" width="80" height="30" as="geometry" />
        </mxCell>
        <mxCell id="5VBEP0D_r0S6fKka9dr4-65" value="&lt;div align=&quot;left&quot;&gt;&lt;b&gt;Changes:&lt;/b&gt;&lt;br&gt;&lt;/div&gt;&lt;div align=&quot;left&quot;&gt;&lt;br&gt;&lt;/div&gt;&lt;div align=&quot;left&quot;&gt;Essentially Plan B + Plan C&lt;/div&gt;&lt;div align=&quot;left&quot;&gt;&lt;br&gt;&lt;/div&gt;&lt;div align=&quot;left&quot;&gt;&lt;div align=&quot;left&quot;&gt;port DCD to 65nm&lt;/div&gt;&lt;div align=&quot;left&quot;&gt;&lt;br&gt;&lt;/div&gt;&lt;div align=&quot;left&quot;&gt;redesign ADC as ~12-bit&lt;/div&gt;&lt;div align=&quot;left&quot;&gt;&lt;br&gt;&lt;/div&gt;&lt;div align=&quot;left&quot;&gt;built-in pedestal DAC,&lt;/div&gt;&lt;div align=&quot;left&quot;&gt;frees full 10-wide bus&lt;br&gt;&lt;/div&gt;&lt;font color=&quot;#009900&quot;&gt;10-bit ENOB resolutions&lt;/font&gt;&lt;br&gt;&lt;/div&gt;&lt;div align=&quot;left&quot;&gt;&lt;font color=&quot;#009900&quot;&gt;&lt;br&gt;&lt;/font&gt;&lt;/div&gt;&lt;div align=&quot;left&quot;&gt;port DMC to 28nm&lt;/div&gt;&lt;div align=&quot;left&quot;&gt;&lt;br&gt;&lt;/div&gt;&lt;div align=&quot;left&quot;&gt;increase frame memory&lt;br&gt;&lt;/div&gt;&lt;div align=&quot;left&quot;&gt;&lt;font color=&quot;#009900&quot;&gt;4x frames per burst (200)&lt;br&gt;&lt;/font&gt;&lt;/div&gt;&lt;div align=&quot;left&quot;&gt;&lt;font color=&quot;#009900&quot;&gt;&lt;br&gt;&lt;/font&gt;&lt;/div&gt;&lt;div align=&quot;left&quot;&gt;2x improved PLL speed, but&lt;br&gt;&lt;/div&gt;&lt;div&gt;&lt;font color=&quot;#ff0000&quot;&gt;bursts/second will likely 0.5x&lt;/font&gt;&lt;br&gt;&lt;/div&gt;&lt;div&gt;&lt;font color=&quot;#ff0000&quot;&gt;(2x longer dead time)&lt;/font&gt;&lt;br&gt;&lt;/div&gt;&lt;div align=&quot;left&quot;&gt;&lt;br&gt;&lt;/div&gt;&lt;div align=&quot;left&quot;&gt;&lt;font color=&quot;#ff0000&quot;&gt;potentially increased power&lt;/font&gt;&lt;/div&gt;" style="text;html=1;align=left;verticalAlign=top;resizable=0;points=[];autosize=1;strokeColor=none;fillColor=none;horizontal=1;labelPosition=center;verticalLabelPosition=middle;" parent="1" vertex="1">
          <mxGeometry x="840" y="500" width="170" height="330" as="geometry" />
        </mxCell>
        <mxCell id="5VBEP0D_r0S6fKka9dr4-66" style="edgeStyle=orthogonalEdgeStyle;rounded=0;orthogonalLoop=1;jettySize=auto;html=1;exitX=0.75;exitY=1;exitDx=0;exitDy=0;entryX=0.75;entryY=0;entryDx=0;entryDy=0;" parent="1" edge="1">
          <mxGeometry relative="1" as="geometry">
            <mxPoint x="919.5799999999999" y="240" as="sourcePoint" />
            <mxPoint x="919.5799999999999" y="320" as="targetPoint" />
          </mxGeometry>
        </mxCell>
        <mxCell id="5VBEP0D_r0S6fKka9dr4-67" value="&lt;font&gt;10b data&lt;/font&gt;" style="edgeLabel;html=1;align=center;verticalAlign=middle;resizable=0;points=[];fontColor=#009900;" parent="5VBEP0D_r0S6fKka9dr4-66" vertex="1" connectable="0">
          <mxGeometry x="-0.075" y="-2" relative="1" as="geometry">
            <mxPoint y="-1" as="offset" />
          </mxGeometry>
        </mxCell>
        <mxCell id="5VBEP0D_r0S6fKka9dr4-68" value="&lt;div&gt;DCD&lt;/div&gt;&lt;div&gt;&lt;font color=&quot;#009900&quot;&gt;65nm&lt;/font&gt;&lt;br&gt;&lt;/div&gt;&lt;div&gt;&lt;font color=&quot;#009900&quot;&gt;~12-bit&lt;br&gt;&lt;/font&gt;&lt;/div&gt;&lt;div&gt;10 Msps&lt;br&gt;&lt;/div&gt;" style="rounded=0;whiteSpace=wrap;html=1;fillColor=#e1d5e7;strokeColor=#9673a6;" parent="1" vertex="1">
          <mxGeometry x="840" y="120" width="160" height="120" as="geometry" />
        </mxCell>
        <mxCell id="5VBEP0D_r0S6fKka9dr4-70" style="edgeStyle=orthogonalEdgeStyle;rounded=0;orthogonalLoop=1;jettySize=auto;html=1;exitX=0.5;exitY=1;exitDx=0;exitDy=0;" parent="1" edge="1">
          <mxGeometry relative="1" as="geometry">
            <mxPoint x="1119.6871428571428" y="480" as="targetPoint" />
            <mxPoint x="1119.83" y="440" as="sourcePoint" />
          </mxGeometry>
        </mxCell>
        <mxCell id="5VBEP0D_r0S6fKka9dr4-71" value="&lt;font&gt;3.2 Gbps&lt;/font&gt;" style="edgeLabel;html=1;align=center;verticalAlign=middle;resizable=0;points=[];fontColor=#009900;" parent="5VBEP0D_r0S6fKka9dr4-70" vertex="1" connectable="0">
          <mxGeometry x="-0.2931" y="-2" relative="1" as="geometry">
            <mxPoint as="offset" />
          </mxGeometry>
        </mxCell>
        <mxCell id="5VBEP0D_r0S6fKka9dr4-72" value="Config E:" style="text;html=1;align=center;verticalAlign=middle;resizable=0;points=[];autosize=1;strokeColor=none;fillColor=none;fontStyle=5;fontSize=14;" parent="1" vertex="1">
          <mxGeometry x="1080" y="80" width="80" height="30" as="geometry" />
        </mxCell>
        <mxCell id="5VBEP0D_r0S6fKka9dr4-73" value="&lt;div align=&quot;left&quot;&gt;&lt;b&gt;Changes:&lt;/b&gt;&lt;br&gt;&lt;/div&gt;&lt;div&gt;&lt;br&gt;&lt;/div&gt;&lt;div&gt;monolithic DCD + DMC in 65nm&lt;/div&gt;&lt;div&gt;&lt;font color=&quot;#ff0000&quot;&gt;requires ASM balcony redesign&lt;/font&gt;&lt;/div&gt;&lt;div&gt;&lt;font color=&quot;#009900&quot;&gt;more total silicon area&lt;br&gt;&lt;/font&gt;&lt;/div&gt;&lt;div align=&quot;left&quot;&gt;&lt;div align=&quot;left&quot;&gt;&lt;br&gt;&lt;/div&gt;&lt;div align=&quot;left&quot;&gt;redesign ADC as ~12-bit,&lt;/div&gt;&lt;div align=&quot;left&quot;&gt;similar to plan B&lt;/div&gt;&lt;div align=&quot;left&quot;&gt;&lt;font color=&quot;#009900&quot;&gt;10-12 bit measurement resolution?&lt;/font&gt;&lt;br&gt;&lt;/div&gt;&lt;br&gt;&lt;/div&gt;&lt;div align=&quot;left&quot;&gt;minor increase to frame memory&lt;br&gt;&lt;/div&gt;&lt;div align=&quot;left&quot;&gt;&lt;font color=&quot;#009900&quot;&gt;1.5x frames per burst (80) ?&lt;/font&gt;&lt;br&gt;&lt;/div&gt;&lt;div align=&quot;left&quot;&gt;&lt;font color=&quot;#009900&quot;&gt;&lt;br&gt;&lt;/font&gt;&lt;/div&gt;&lt;div align=&quot;left&quot;&gt;2x improved PLL speed, but&lt;br&gt;&lt;/div&gt;&lt;div&gt;&lt;font color=&quot;#ff0000&quot;&gt;0.5x bursts/second likely 0.5x&lt;/font&gt;&lt;br&gt;&lt;/div&gt;&lt;div&gt;&lt;font color=&quot;#ff0000&quot;&gt;(2x longer dead time)&lt;/font&gt;&lt;br&gt;&lt;/div&gt;&lt;div align=&quot;left&quot;&gt;&lt;br&gt;&lt;/div&gt;&lt;div align=&quot;left&quot;&gt;&lt;font color=&quot;#ff0000&quot;&gt;power difference?&lt;br&gt;&lt;/font&gt;&lt;/div&gt;&lt;div&gt;&lt;br&gt;&lt;/div&gt;&lt;div&gt;&lt;br&gt;&lt;/div&gt;" style="text;html=1;align=left;verticalAlign=top;resizable=0;points=[];autosize=1;strokeColor=none;fillColor=none;horizontal=1;labelPosition=center;verticalLabelPosition=middle;" parent="1" vertex="1">
          <mxGeometry x="1040" y="500" width="210" height="300" as="geometry" />
        </mxCell>
        <mxCell id="5VBEP0D_r0S6fKka9dr4-76" value="&lt;div&gt;DCD + DMC&lt;br&gt;&lt;/div&gt;&lt;div&gt;&lt;font color=&quot;#009900&quot;&gt;65nm&lt;/font&gt;&lt;/div&gt;&lt;div&gt;&lt;font color=&quot;#009900&quot;&gt;&lt;br&gt;&lt;/font&gt;&lt;/div&gt;&lt;div&gt;&lt;font color=&quot;#009900&quot;&gt;~12-bit&lt;br&gt;&lt;/font&gt;&lt;/div&gt;&lt;div&gt;10 Msps&lt;br&gt;&lt;/div&gt;&lt;div&gt;&lt;br&gt;&lt;/div&gt;&lt;div&gt;&lt;font color=&quot;#009900&quot;&gt;~80 frames?&lt;/font&gt;&lt;br&gt;&lt;/div&gt;" style="rounded=0;whiteSpace=wrap;html=1;fillColor=#e1d5e7;strokeColor=#9673a6;" parent="1" vertex="1">
          <mxGeometry x="1040" y="120" width="160" height="320" as="geometry" />
        </mxCell>
        <mxCell id="5VBEP0D_r0S6fKka9dr4-77" style="edgeStyle=orthogonalEdgeStyle;rounded=0;orthogonalLoop=1;jettySize=auto;html=1;exitX=0.5;exitY=1;exitDx=0;exitDy=0;" parent="1" edge="1">
          <mxGeometry relative="1" as="geometry">
            <mxPoint x="1319.6871428571428" y="480" as="targetPoint" />
            <mxPoint x="1319.83" y="440" as="sourcePoint" />
          </mxGeometry>
        </mxCell>
        <mxCell id="5VBEP0D_r0S6fKka9dr4-78" value="&lt;font&gt;3.2 Gbps&lt;/font&gt;" style="edgeLabel;html=1;align=center;verticalAlign=middle;resizable=0;points=[];fontColor=#009900;" parent="5VBEP0D_r0S6fKka9dr4-77" vertex="1" connectable="0">
          <mxGeometry x="-0.2931" y="-2" relative="1" as="geometry">
            <mxPoint as="offset" />
          </mxGeometry>
        </mxCell>
        <mxCell id="5VBEP0D_r0S6fKka9dr4-79" value="Config F:" style="text;html=1;align=center;verticalAlign=middle;resizable=0;points=[];autosize=1;strokeColor=none;fillColor=none;fontStyle=5;fontSize=14;" parent="1" vertex="1">
          <mxGeometry x="1280" y="80" width="80" height="30" as="geometry" />
        </mxCell>
        <mxCell id="5VBEP0D_r0S6fKka9dr4-80" value="&lt;div align=&quot;left&quot;&gt;&lt;b&gt;Changes:&lt;/b&gt;&lt;br&gt;&lt;/div&gt;&lt;div&gt;&lt;br&gt;&lt;/div&gt;&lt;div&gt;monolithic DCD + DMC in 28nm&lt;/div&gt;&lt;div&gt;&lt;font color=&quot;#ff0000&quot;&gt;requires ASM balcony redesign&lt;/font&gt;&lt;br&gt;&lt;/div&gt;&lt;div align=&quot;left&quot;&gt;&lt;div align=&quot;left&quot;&gt;&lt;font color=&quot;#009900&quot;&gt;more total silicon area&lt;/font&gt;&lt;br&gt;&lt;/div&gt;&lt;div align=&quot;left&quot;&gt;&lt;br&gt;&lt;/div&gt;&lt;div align=&quot;left&quot;&gt;redesign ADC as ~12-bit&lt;br&gt;&lt;/div&gt;&lt;div align=&quot;left&quot;&gt;&lt;font color=&quot;#009900&quot;&gt;supply may limit ADC resolution?&lt;/font&gt;&lt;/div&gt;&lt;/div&gt;&lt;div&gt;&lt;br&gt;&lt;/div&gt;&lt;div&gt;&lt;br&gt;&lt;/div&gt;&lt;div&gt;increase frame memory&lt;br&gt;&lt;/div&gt;&lt;div&gt;&lt;font color=&quot;#009900&quot;&gt;5x frames per burst (250) ?&lt;/font&gt;&lt;br&gt;&lt;/div&gt;&lt;div&gt;&lt;br&gt;&lt;/div&gt;&lt;div align=&quot;left&quot;&gt;&lt;font color=&quot;#009900&quot;&gt;&lt;br&gt;&lt;/font&gt;&lt;/div&gt;&lt;div align=&quot;left&quot;&gt;2x improved PLL speed, but&lt;br&gt;&lt;/div&gt;&lt;div&gt;&lt;font color=&quot;#ff0000&quot;&gt;bursts/second likely 0.5x&lt;/font&gt;&lt;br&gt;&lt;/div&gt;&lt;div&gt;&lt;font color=&quot;#ff0000&quot;&gt;(2.5x longer dead time)&lt;/font&gt;&lt;br&gt;&lt;/div&gt;&lt;div align=&quot;left&quot;&gt;&lt;br&gt;&lt;/div&gt;&lt;div align=&quot;left&quot;&gt;&lt;font color=&quot;#ff0000&quot;&gt;power difference?&lt;br&gt;&lt;/font&gt;&lt;/div&gt;" style="text;html=1;align=left;verticalAlign=top;resizable=0;points=[];autosize=1;strokeColor=none;fillColor=none;horizontal=1;labelPosition=center;verticalLabelPosition=middle;" parent="1" vertex="1">
          <mxGeometry x="1240" y="500" width="200" height="290" as="geometry" />
        </mxCell>
        <mxCell id="5VBEP0D_r0S6fKka9dr4-81" value="&lt;div&gt;DCD + DMC&lt;br&gt;&lt;/div&gt;&lt;div&gt;&lt;font color=&quot;#009900&quot;&gt;28nm&lt;/font&gt;&lt;/div&gt;&lt;div&gt;&lt;font color=&quot;#009900&quot;&gt;&lt;br&gt;&lt;/font&gt;&lt;/div&gt;&lt;div&gt;&lt;font color=&quot;#009900&quot;&gt;~12-bit?&lt;br&gt;&lt;/font&gt;&lt;/div&gt;&lt;div&gt;10 Msps&lt;br&gt;&lt;/div&gt;&lt;div&gt;&lt;br&gt;&lt;/div&gt;&lt;div&gt;&lt;font color=&quot;#009900&quot;&gt;~250 frames?&lt;/font&gt;&lt;br&gt;&lt;/div&gt;" style="rounded=0;whiteSpace=wrap;html=1;fillColor=#ffe6cc;strokeColor=#d79b00;" parent="1" vertex="1">
          <mxGeometry x="1240" y="120" width="160" height="320" as="geometry" />
        </mxCell>
      </root>
    </mxGraphModel>
  </diagram>
</mxfile>
